ffmpeg started on 2025-05-28 at 20:51:58
Report written to "D:\Convert\FFMetrics\reports\psnr_report-6.txt"
Log level: 32
Command line:
ffmpeg -hide_banner -nostdin -i "G:\\\xc0\xed\xe8\xec\xe5\\\xce\xed\xe3\xee\xe8\xed\xe3\xe8\\!_36_\xce\xf1\xe5\xed\xfc_2024\\JamClub\\\xc8\xf1\xf2\xee\xf0\xe8\xff \xee \xf2\xee\xec, \xea\xe0\xea \xff \xef\xf0\xe8\xf8\xb8\xeb \xed\xe0 \xe2\xe5\xf7\xe5\xf0\xe8\xed\xea\xf3, \xe0 \xf2\xe0\xec \xed\xe5 \xe1\xfb\xeb\xee \xed\xe8 \xee\xe4\xed\xee\xe9 \xe6\xe5\xed\xf9\xe8\xed\xfb\\JamClub_Goukon_ni_Ittara_Onna_ga_Inakatta_Hanashi_11_1080p_HEVC.mkv" -i "G:\\\xc0\xed\xe8\xec\xe5\\\xce\xed\xe3\xee\xe8\xed\xe3\xe8\\!_36_\xce\xf1\xe5\xed\xfc_2024\\JamClub\\\xc8\xf1\xf2\xee\xf0\xe8\xff \xee \xf2\xee\xec, \xea\xe0\xea \xff \xef\xf0\xe8\xf8\xb8\xeb \xed\xe0 \xe2\xe5\xf7\xe5\xf0\xe8\xed\xea\xf3, \xe0 \xf2\xe0\xec \xed\xe5 \xe1\xfb\xeb\xee \xed\xe8 \xee\xe4\xed\xee\xe9 \xe6\xe5\xed\xf9\xe8\xed\xfb\\JamClub_Goukon_ni_Ittara_Onna_ga_Inakatta_Hanashi_11_1080p.mp4" -lavfi "[0:v]settb=AVTB,setpts=PTS-STARTPTS,format=pix_fmts=yuv420p10,fps=24000/1001,scale=1920:1080:flags=bicubic[main];[1:v]settb=AVTB,setpts=PTS-STARTPTS,format=pix_fmts=yuv420p,fps=24000/1001,scale=1920:1080:flags=bicubic[ref];[main][ref]psnr=eof_action=endall:stats_file='D\\:/Convert/FFMetrics/logs/psnr_logfile-6.txt'" -f null -
Input #0, matroska,webm, from 'G:\Аниме\Онгоинги\!_36_Осень_2024\JamClub\История о том, как я пришёл на вечеринку, а там не было ни одной женщины\JamClub_Goukon_ni_Ittara_Onna_ga_Inakatta_Hanashi_11_1080p_HEVC.mkv':
  Metadata:
    COMPATIBLE_BRANDS: isomiso2avc1mp41
    MAJOR_BRAND     : isom
    MINOR_VERSION   : 512
    ENCODER         : Lavf61.7.100
  Duration: 00:24:22.21, start: -0.001000, bitrate: 1148 kb/s
  Stream #0:0: Video: hevc (Main 10), yuv420p10le(tv, bt709, progressive), 1920x1080 [SAR 1:1 DAR 16:9], 23.98 fps, 23.98 tbr, 1k tbn (default)
      Metadata:
        HANDLER_NAME    : VideoHandler
        VENDOR_ID       : [0][0][0][0]
        ENCODER         : Lavc61.19.100 libx265
        BPS             : 950497
        DURATION        : 00:24:22.127708333
        NUMBER_OF_FRAMES: 35056
        NUMBER_OF_BYTES : 173718448
        _STATISTICS_WRITING_APP: mkvpropedit v66.0.0 ('Josie') 64-bit
        _STATISTICS_WRITING_DATE_UTC: 2025-05-28 11:20:14
        _STATISTICS_TAGS: BPS DURATION NUMBER_OF_FRAMES NUMBER_OF_BYTES
  Stream #0:1(eng): Audio: aac (LC), 48000 Hz, stereo, fltp (default)
      Metadata:
        HANDLER_NAME    : SoundHandler
        VENDOR_ID       : [0][0][0][0]
        ENCODER         : Lavc61.19.100 aac
        BPS             : 193660
        DURATION        : 00:24:22.168000000
        NUMBER_OF_FRAMES: 68540
        NUMBER_OF_BYTES : 35395579
        _STATISTICS_WRITING_APP: mkvpropedit v66.0.0 ('Josie') 64-bit
        _STATISTICS_WRITING_DATE_UTC: 2025-05-28 11:20:14
        _STATISTICS_TAGS: BPS DURATION NUMBER_OF_FRAMES NUMBER_OF_BYTES
Input #1, mov,mp4,m4a,3gp,3g2,mj2, from 'G:\Аниме\Онгоинги\!_36_Осень_2024\JamClub\История о том, как я пришёл на вечеринку, а там не было ни одной женщины\JamClub_Goukon_ni_Ittara_Onna_ga_Inakatta_Hanashi_11_1080p.mp4':
  Metadata:
    major_brand     : isom
    minor_version   : 512
    compatible_brands: isomiso2avc1mp41
    encoder         : Lavf60.16.100
  Duration: 00:24:22.19, start: 0.000000, bitrate: 3197 kb/s
  Stream #1:0[0x1](und): Video: h264 (High) (avc1 / 0x31637661), yuv420p(progressive), 1920x1080 [SAR 1:1 DAR 16:9], 2998 kb/s, 23.98 fps, 23.98 tbr, 90k tbn (default)
      Metadata:
        handler_name    : VideoHandler
        vendor_id       : [0][0][0][0]
  Stream #1:1[0x2](eng): Audio: aac (LC) (mp4a / 0x6134706D), 48000 Hz, stereo, fltp, 191 kb/s (default)
      Metadata:
        handler_name    : SoundHandler
        vendor_id       : [0][0][0][0]
Stream mapping:
  Stream #0:0 (hevc) -> settb:default
  Stream #1:0 (h264) -> settb:default
  psnr:default -> Stream #0:0 (wrapped_avframe)
  Stream #0:1 -> #0:1 (aac (native) -> pcm_s16le (native))
Output #0, null, to 'pipe:':
  Metadata:
    COMPATIBLE_BRANDS: isomiso2avc1mp41
    MAJOR_BRAND     : isom
    MINOR_VERSION   : 512
    encoder         : Lavf61.7.100
  Stream #0:0: Video: wrapped_avframe, yuv420p10le(tv, bt709, progressive), 1920x1080 [SAR 1:1 DAR 16:9], q=2-31, 200 kb/s, 23.98 fps, 23.98 tbn
      Metadata:
        encoder         : Lavc61.19.100 wrapped_avframe
  Stream #0:1(eng): Audio: pcm_s16le, 48000 Hz, stereo, s16, 1536 kb/s (default)
      Metadata:
        HANDLER_NAME    : SoundHandler
        VENDOR_ID       : [0][0][0][0]
        _STATISTICS_TAGS: BPS DURATION NUMBER_OF_FRAMES NUMBER_OF_BYTES
        BPS             : 193660
        DURATION        : 00:24:22.168000000
        NUMBER_OF_FRAMES: 68540
        NUMBER_OF_BYTES : 35395579
        _STATISTICS_WRITING_APP: mkvpropedit v66.0.0 ('Josie') 64-bit
        _STATISTICS_WRITING_DATE_UTC: 2025-05-28 11:20:14
        encoder         : Lavc61.19.100 pcm_s16le
frame=  112 fps=0.0 q=-0.0 size=N/A time=00:00:04.67 bitrate=N/A speed=9.27x    frame=  279 fps=272 q=-0.0 size=N/A time=00:00:11.63 bitrate=N/A speed=11.4x    frame=  478 fps=309 q=-0.0 size=N/A time=00:00:19.93 bitrate=N/A speed=12.9x    frame=  698 fps=340 q=-0.0 size=N/A time=00:00:29.11 bitrate=N/A speed=14.2x    frame=  939 fps=364 q=-0.0 size=N/A time=00:00:39.16 bitrate=N/A speed=15.2x    frame= 1197 fps=388 q=-0.0 size=N/A time=00:00:49.92 bitrate=N/A speed=16.2x    frame= 1471 fps=408 q=-0.0 size=N/A time=00:01:01.35 bitrate=N/A speed=  17x    frame= 1718 fps=418 q=-0.0 size=N/A time=00:01:11.65 bitrate=N/A speed=17.4x    frame= 1945 fps=420 q=-0.0 size=N/A time=00:01:21.12 bitrate=N/A speed=17.5x    frame= 2157 fps=419 q=-0.0 size=N/A time=00:01:29.96 bitrate=N/A speed=17.5x    frame= 2440 fps=431 q=-0.0 size=N/A time=00:01:41.76 bitrate=N/A speed=  18x    frame= 2685 fps=435 q=-0.0 size=N/A time=00:01:51.98 bitrate=N/A speed=18.1x    frame= 2931 fps=438 q=-0.0 size=N/A time=00:02:02.24 bitrate=N/A speed=18.3x    frame= 3149 fps=437 q=-0.0 size=N/A time=00:02:11.33 bitrate=N/A speed=18.2x    frame= 3369 fps=436 q=-0.0 size=N/A time=00:02:20.51 bitrate=N/A speed=18.2x    frame= 3569 fps=433 q=-0.0 size=N/A time=00:02:28.85 bitrate=N/A speed=18.1x    frame= 3833 fps=438 q=-0.0 size=N/A time=00:02:39.86 bitrate=N/A speed=18.3x    frame= 4078 fps=440 q=-0.0 size=N/A time=00:02:50.08 bitrate=N/A speed=18.3x    frame= 4275 fps=437 q=-0.0 size=N/A time=00:02:58.30 bitrate=N/A speed=18.2x    frame= 4496 fps=436 q=-0.0 size=N/A time=00:03:07.52 bitrate=N/A speed=18.2x    frame= 4701 fps=434 q=-0.0 size=N/A time=00:03:16.07 bitrate=N/A speed=18.1x    frame= 4958 fps=438 q=-0.0 size=N/A time=00:03:26.78 bitrate=N/A speed=18.2x    frame= 5184 fps=437 q=-0.0 size=N/A time=00:03:36.21 bitrate=N/A speed=18.2x    frame= 5464 fps=442 q=-0.0 size=N/A time=00:03:47.89 bitrate=N/A speed=18.4x    frame= 5693 fps=442 q=-0.0 size=N/A time=00:03:57.44 bitrate=N/A speed=18.4x    frame= 5917 fps=442 q=-0.0 size=N/A time=00:04:06.78 bitrate=N/A speed=18.4x    frame= 6187 fps=445 q=-0.0 size=N/A time=00:04:18.04 bitrate=N/A speed=18.5x    frame= 6452 fps=447 q=-0.0 size=N/A time=00:04:29.10 bitrate=N/A speed=18.7x    frame= 6694 fps=448 q=-0.0 size=N/A time=00:04:39.19 bitrate=N/A speed=18.7x    frame= 6929 fps=448 q=-0.0 size=N/A time=00:04:48.99 bitrate=N/A speed=18.7x    frame= 7177 fps=449 q=-0.0 size=N/A time=00:04:59.34 bitrate=N/A speed=18.7x    frame= 7405 fps=449 q=-0.0 size=N/A time=00:05:08.85 bitrate=N/A speed=18.7x    frame= 7664 fps=451 q=-0.0 size=N/A time=00:05:19.65 bitrate=N/A speed=18.8x    frame= 7925 fps=452 q=-0.0 size=N/A time=00:05:30.53 bitrate=N/A speed=18.9x    frame= 8095 fps=449 q=-0.0 size=N/A time=00:05:37.62 bitrate=N/A speed=18.7x    frame= 8316 fps=448 q=-0.0 size=N/A time=00:05:46.84 bitrate=N/A speed=18.7x    frame= 8542 fps=448 q=-0.0 size=N/A time=00:05:56.27 bitrate=N/A speed=18.7x    frame= 8798 fps=449 q=-0.0 size=N/A time=00:06:06.94 bitrate=N/A speed=18.7x    frame= 9036 fps=450 q=-0.0 size=N/A time=00:06:16.87 bitrate=N/A speed=18.8x    frame= 9293 fps=451 q=-0.0 size=N/A time=00:06:27.59 bitrate=N/A speed=18.8x    frame= 9553 fps=452 q=-0.0 size=N/A time=00:06:38.43 bitrate=N/A speed=18.9x    frame= 9781 fps=452 q=-0.0 size=N/A time=00:06:47.94 bitrate=N/A speed=18.8x    frame= 9993 fps=451 q=-0.0 size=N/A time=00:06:56.79 bitrate=N/A speed=18.8x    frame=10268 fps=453 q=-0.0 size=N/A time=00:07:08.26 bitrate=N/A speed=18.9x    frame=10532 fps=454 q=-0.0 size=N/A time=00:07:19.27 bitrate=N/A speed=18.9x    frame=10800 fps=455 q=-0.0 size=N/A time=00:07:30.45 bitrate=N/A speed=  19x    frame=11018 fps=455 q=-0.0 size=N/A time=00:07:39.54 bitrate=N/A speed=  19x    frame=11240 fps=454 q=-0.0 size=N/A time=00:07:48.80 bitrate=N/A speed=  19x    frame=11492 fps=455 q=-0.0 size=N/A time=00:07:59.31 bitrate=N/A speed=  19x    frame=11723 fps=455 q=-0.0 size=N/A time=00:08:08.94 bitrate=N/A speed=  19x    frame=11967 fps=455 q=-0.0 size=N/A time=00:08:19.12 bitrate=N/A speed=  19x    frame=12226 fps=456 q=-0.0 size=N/A time=00:08:29.92 bitrate=N/A speed=  19x    frame=12483 fps=457 q=-0.0 size=N/A time=00:08:40.64 bitrate=N/A speed=19.1x    frame=12747 fps=458 q=-0.0 size=N/A time=00:08:51.65 bitrate=N/A speed=19.1x    frame=12982 fps=458 q=-0.0 size=N/A time=00:09:01.45 bitrate=N/A speed=19.1x    frame=13249 fps=459 q=-0.0 size=N/A time=00:09:12.59 bitrate=N/A speed=19.1x    frame=13498 fps=459 q=-0.0 size=N/A time=00:09:22.97 bitrate=N/A speed=19.2x    frame=13746 fps=460 q=-0.0 size=N/A time=00:09:33.32 bitrate=N/A speed=19.2x    frame=14011 fps=461 q=-0.0 size=N/A time=00:09:44.37 bitrate=N/A speed=19.2x    frame=14270 fps=461 q=-0.0 size=N/A time=00:09:55.17 bitrate=N/A speed=19.2x    frame=14531 fps=462 q=-0.0 size=N/A time=00:10:06.06 bitrate=N/A speed=19.3x    frame=14792 fps=463 q=-0.0 size=N/A time=00:10:16.94 bitrate=N/A speed=19.3x    frame=15032 fps=463 q=-0.0 size=N/A time=00:10:26.95 bitrate=N/A speed=19.3x    frame=15247 fps=462 q=-0.0 size=N/A time=00:10:35.92 bitrate=N/A speed=19.3x    frame=15483 fps=462 q=-0.0 size=N/A time=00:10:45.77 bitrate=N/A speed=19.3x    frame=15726 fps=462 q=-0.0 size=N/A time=00:10:55.90 bitrate=N/A speed=19.3x    frame=15974 fps=462 q=-0.0 size=N/A time=00:11:06.24 bitrate=N/A speed=19.3x    frame=16229 fps=463 q=-0.0 size=N/A time=00:11:16.88 bitrate=N/A speed=19.3x    frame=16466 fps=463 q=-0.0 size=N/A time=00:11:26.76 bitrate=N/A speed=19.3x    frame=16708 fps=463 q=-0.0 size=N/A time=00:11:36.86 bitrate=N/A speed=19.3x    frame=16963 fps=463 q=-0.0 size=N/A time=00:11:47.49 bitrate=N/A speed=19.3x    frame=17225 fps=464 q=-0.0 size=N/A time=00:11:58.42 bitrate=N/A speed=19.4x    frame=17460 fps=464 q=-0.0 size=N/A time=00:12:08.22 bitrate=N/A speed=19.4x    frame=17697 fps=464 q=-0.0 size=N/A time=00:12:18.11 bitrate=N/A speed=19.4x    frame=17920 fps=464 q=-0.0 size=N/A time=00:12:27.41 bitrate=N/A speed=19.3x    frame=18154 fps=463 q=-0.0 size=N/A time=00:12:37.17 bitrate=N/A speed=19.3x    frame=18425 fps=464 q=-0.0 size=N/A time=00:12:48.47 bitrate=N/A speed=19.4x    frame=18665 fps=464 q=-0.0 size=N/A time=00:12:58.48 bitrate=N/A speed=19.4x    frame=18926 fps=465 q=-0.0 size=N/A time=00:13:09.37 bitrate=N/A speed=19.4x    frame=19176 fps=465 q=-0.0 size=N/A time=00:13:19.79 bitrate=N/A speed=19.4x    frame=19396 fps=464 q=-0.0 size=N/A time=00:13:28.97 bitrate=N/A speed=19.4x    frame=19630 fps=464 q=-0.0 size=N/A time=00:13:38.73 bitrate=N/A speed=19.4x    frame=19894 fps=465 q=-0.0 size=N/A time=00:13:49.74 bitrate=N/A speed=19.4x    frame=20161 fps=465 q=-0.0 size=N/A time=00:14:00.88 bitrate=N/A speed=19.4x    frame=20404 fps=465 q=-0.0 size=N/A time=00:14:11.01 bitrate=N/A speed=19.4x    frame=20655 fps=466 q=-0.0 size=N/A time=00:14:21.48 bitrate=N/A speed=19.4x    frame=20907 fps=466 q=-0.0 size=N/A time=00:14:31.99 bitrate=N/A speed=19.4x    frame=21153 fps=466 q=-0.0 size=N/A time=00:14:42.25 bitrate=N/A speed=19.4x    frame=21377 fps=466 q=-0.0 size=N/A time=00:14:51.59 bitrate=N/A speed=19.4x    frame=21609 fps=466 q=-0.0 size=N/A time=00:15:01.27 bitrate=N/A speed=19.4x    frame=21875 fps=466 q=-0.0 size=N/A time=00:15:12.36 bitrate=N/A speed=19.4x    frame=22120 fps=466 q=-0.0 size=N/A time=00:15:22.58 bitrate=N/A speed=19.4x    frame=22381 fps=467 q=-0.0 size=N/A time=00:15:33.47 bitrate=N/A speed=19.5x    frame=22624 fps=467 q=-0.0 size=N/A time=00:15:43.60 bitrate=N/A speed=19.5x    frame=22874 fps=467 q=-0.0 size=N/A time=00:15:54.03 bitrate=N/A speed=19.5x    frame=23144 fps=467 q=-0.0 size=N/A time=00:16:05.29 bitrate=N/A speed=19.5x    frame=23398 fps=468 q=-0.0 size=N/A time=00:16:15.89 bitrate=N/A speed=19.5x    frame=23677 fps=468 q=-0.0 size=N/A time=00:16:27.52 bitrate=N/A speed=19.5x    frame=23925 fps=469 q=-0.0 size=N/A time=00:16:37.87 bitrate=N/A speed=19.5x    frame=24177 fps=469 q=-0.0 size=N/A time=00:16:48.38 bitrate=N/A speed=19.6x    frame=24430 fps=469 q=-0.0 size=N/A time=00:16:58.93 bitrate=N/A speed=19.6x    frame=24691 fps=469 q=-0.0 size=N/A time=00:17:09.82 bitrate=N/A speed=19.6x    frame=24960 fps=470 q=-0.0 size=N/A time=00:17:21.04 bitrate=N/A speed=19.6x    frame=25226 fps=470 q=-0.0 size=N/A time=00:17:32.13 bitrate=N/A speed=19.6x    frame=25485 fps=471 q=-0.0 size=N/A time=00:17:42.93 bitrate=N/A speed=19.6x    frame=25747 fps=471 q=-0.0 size=N/A time=00:17:53.86 bitrate=N/A speed=19.6x    frame=26025 fps=472 q=-0.0 size=N/A time=00:18:05.45 bitrate=N/A speed=19.7x    frame=26245 fps=471 q=-0.0 size=N/A time=00:18:14.63 bitrate=N/A speed=19.7x    frame=26509 fps=472 q=-0.0 size=N/A time=00:18:25.68 bitrate=N/A speed=19.7x    frame=26756 fps=472 q=-0.0 size=N/A time=00:18:35.94 bitrate=N/A speed=19.7x    frame=27006 fps=472 q=-0.0 size=N/A time=00:18:46.37 bitrate=N/A speed=19.7x    frame=27251 fps=472 q=-0.0 size=N/A time=00:18:56.59 bitrate=N/A speed=19.7x    frame=27498 fps=472 q=-0.0 size=N/A time=00:19:06.89 bitrate=N/A speed=19.7x    frame=27764 fps=472 q=-0.0 size=N/A time=00:19:17.99 bitrate=N/A speed=19.7x    frame=28018 fps=472 q=-0.0 size=N/A time=00:19:28.58 bitrate=N/A speed=19.7x    frame=28141 fps=470 q=-0.0 size=N/A time=00:19:33.71 bitrate=N/A speed=19.6x    frame=28362 fps=470 q=-0.0 size=N/A time=00:19:42.93 bitrate=N/A speed=19.6x    frame=28625 fps=470 q=-0.0 size=N/A time=00:19:53.90 bitrate=N/A speed=19.6x    frame=28889 fps=471 q=-0.0 size=N/A time=00:20:04.91 bitrate=N/A speed=19.6x    frame=29151 fps=471 q=-0.0 size=N/A time=00:20:15.83 bitrate=N/A speed=19.6x    frame=29439 fps=472 q=-0.0 size=N/A time=00:20:27.85 bitrate=N/A speed=19.7x    frame=29700 fps=472 q=-0.0 size=N/A time=00:20:38.73 bitrate=N/A speed=19.7x    frame=29945 fps=472 q=-0.0 size=N/A time=00:20:48.95 bitrate=N/A speed=19.7x    frame=30217 fps=472 q=-0.0 size=N/A time=00:21:00.30 bitrate=N/A speed=19.7x    frame=30501 fps=473 q=-0.0 size=N/A time=00:21:12.14 bitrate=N/A speed=19.7x    frame=30776 fps=474 q=-0.0 size=N/A time=00:21:23.61 bitrate=N/A speed=19.8x    frame=31054 fps=474 q=-0.0 size=N/A time=00:21:35.21 bitrate=N/A speed=19.8x    frame=31312 fps=474 q=-0.0 size=N/A time=00:21:45.97 bitrate=N/A speed=19.8x    frame=31586 fps=475 q=-0.0 size=N/A time=00:21:57.39 bitrate=N/A speed=19.8x    frame=31868 fps=475 q=-0.0 size=N/A time=00:22:09.16 bitrate=N/A speed=19.8x    frame=32103 fps=475 q=-0.0 size=N/A time=00:22:18.96 bitrate=N/A speed=19.8x    frame=32365 fps=475 q=-0.0 size=N/A time=00:22:29.89 bitrate=N/A speed=19.8x    frame=32593 fps=475 q=-0.0 size=N/A time=00:22:39.39 bitrate=N/A speed=19.8x    frame=32811 fps=475 q=-0.0 size=N/A time=00:22:48.49 bitrate=N/A speed=19.8x    frame=33064 fps=475 q=-0.0 size=N/A time=00:22:59.04 bitrate=N/A speed=19.8x    frame=33301 fps=475 q=-0.0 size=N/A time=00:23:08.92 bitrate=N/A speed=19.8x    frame=33535 fps=475 q=-0.0 size=N/A time=00:23:18.68 bitrate=N/A speed=19.8x    frame=33730 fps=474 q=-0.0 size=N/A time=00:23:26.82 bitrate=N/A speed=19.8x    frame=33968 fps=474 q=-0.0 size=N/A time=00:23:36.74 bitrate=N/A speed=19.8x    frame=34234 fps=474 q=-0.0 size=N/A time=00:23:47.84 bitrate=N/A speed=19.8x    frame=34495 fps=474 q=-0.0 size=N/A time=00:23:58.72 bitrate=N/A speed=19.8x    frame=34752 fps=474 q=-0.0 size=N/A time=00:24:09.44 bitrate=N/A speed=19.8x    frame=35036 fps=475 q=-0.0 size=N/A time=00:24:21.29 bitrate=N/A speed=19.8x    [Parsed_psnr_10 @ 000001f454524440] PSNR y:48.967386 u:50.979273 v:50.938251 average:49.535379 min:37.687346 max:inf
[out#0/null @ 000001f44d934a80] video:15063KiB audio:274160KiB subtitle:0KiB other streams:0KiB global headers:0KiB muxing overhead: unknown
frame=35056 fps=475 q=-0.0 Lsize=N/A time=00:24:22.12 bitrate=N/A speed=19.8x    
